<?xml version="1.0" encoding="UTF-8"?>
<svg version="1.1" viewBox="0 0 1000 623" xmlns="http://www.w3.org/2000/svg" xmlnsXlink="http://www.w3.org/1999/xlink">
<g transform="translate(-.60606 .25223)">
<svg width="1e3" height="623" data-background-color="#f2f2f2" viewBox="0 0 396 247" xmlns="http://www.w3.org/2000/svg" xmlnsXlink="http://www.w3.org/1999/xlink">
<g transform="translate(.24 -.1)">
<svg width="395.52" height="247.2" viewBox="0 0 395.52 247.2">
<svg/>
<svg width="395.52" height="247.2" viewBox="0 0 395.52 247.2">
<g transform="translate(128.19 47.215)">
<svg width="139.13" height="152.77" viewBox="0 0 139.13358426626323 152.7696">
<svg width="139.13" height="152.77" viewBox="0 0 139.13358426626323 152.7696">
<svg width="139.13" height="152.77" viewBox="0 0 139.13358426626323 152.7696">
<svg width="139.13" height="152.77" viewBox="0 0 139.13358426626323 152.7696">
<svg width="139.13" height="152.77" viewBox="0 0 139.13358426626323 152.7696">
<svg width="139.13" height="152.77" viewBox="0 0 139.13358426626323 152.7696">
<g>
<svg width="139.13" height="152.77" data-palette-color="#042a2b" viewBox="1.149999976158142 -33.04999923706055 30.100000381469727 33.04999923706055">
<path class="wordmark-text-0" d="m13.4 0h-12.25v-1.05l1-0.35q1.6-0.5 1.6-2.5 0.05-2.85 0.05-5.83 0-2.97 0-6.07v-1.75q0-2.9 0-5.8t-0.05-5.8q0-2.05-1.55-2.55l-1.05-0.3v-1.05h13.15q5.25 0 9.05 1.95t5.85 5.62q2.05 3.68 2.05 8.88 0 5.3-2.22 9-2.23 3.7-6.25 5.65-4.03 1.95-9.38 1.95zm-2.4-1.45h2.55q3.55 0 5.78-1.4 2.22-1.4 3.27-4.73 1.05-3.32 1.05-8.97t-1.05-8.95-3.22-4.7q-2.18-1.4-5.63-1.4h-2.75q-0.05 3.45-0.05 6.97 0 3.53 0 7.08v1.7q0 3.75 0 7.32 0 3.58 0.05 7.08z" fill="#042a2b" data-fill-palette-color="primary"/>
</svg>
</g>
</svg>
</svg>
</svg>
</svg>
</svg>
</svg>
</g>
<path d="m85.025 41.215v-41.215h247.2v247.2h-247.2v-41.215h13.777v27.438h219.65v-219.65h-219.65v27.438z" fill="#042a2b" stroke="transparent" data-fill-palette-color="primary"/>
</svg>
</svg>
<rect width="395.52" height="247.2" fill="none" visibility="hidden"/>
</g>
</svg>
</g>
</svg>
